# xmcd
#
# Track frame offsets:
#	150
#	12422
#	27017
#	40712
#	50582
#	61202
#	70247
#	81992
#	94187
#	103457
#	115877
#	127172
#	135992
#	145412
#	156407
#	172952
#	184472
#	195542
#	203912
#	214532
#	226727
#	239072
#	247217
#	259412
#	270707
#
# Disc length: 3718 seconds
#
# Revision: 0
# Processed by: cddbd v1.5.2PL0 Copyright (c) Steve Scherf et al.
# Submitted via: EZCDAudioConverter 2.1.2.1
#
DISCID=7d0e8419
DTITLE=Various Artist - Country and Western: A Ride Through History [CD39) -1960 Part 3
DYEAR=1900
DGENRE=Country
TTITLE0=Roy Drusky - Anymore
TTITLE1=Johnny Horton - Sink The Bismarck
TTITLE2=Marion Worth - I Think I Know
TTITLE3=Don Gibson - Far Far Away
TTITLE4=Stonewall Jackson - Why I'm Walkin'
TTITLE5=Bob Luman - I Love You Because
TTITLE6=Ernest Ashworth - Each Moment Spent With You
TTITLE7=Hank Snow - Miller's Cave
TTITLE8=Roger Miller - You Don't Want My Love
TTITLE9=Jim Reeves - Am I Losing You
TTITLE10=Johnny Horton - Jim Bridger
TTITLE11=Don Gibson - What's The Reason
TTITLE12=Johnny Cash - Smiling Bill McCall
TTITLE13=Bob Luman - Bad Bad Day
TTITLE14=Lonnie Irving - Pinball Machine
TTITLE15=Sonny James - Jenny Lou
TTITLE16=Margie Singleton - Eyes Of Love
TTITLE17=Bobby Bare - Sweet Singin' Sam
TTITLE18=Faron Young - Riverboat
TTITLE19=Johnny Horton - Sleepy Eyed John
TTITLE20=Roy Drusky - Another
TTITLE21=Don Gibson - Why Don't You Love Me
TTITLE22=George Morgan - You're The Only Good Thing (That Happened To Me)
TTITLE23=Buck Owens - Excuse Me (I Think I've Got Heartache)
TTITLE24=Bob Luman - Why Why - Bye Bye
EXTD=
EXTT0=
EXTT1=
EXTT2=
EXTT3=
EXTT4=
EXTT5=
EXTT6=
EXTT7=
EXTT8=
EXTT9=
EXTT10=
EXTT11=
EXTT12=
EXTT13=
EXTT14=
EXTT15=
EXTT16=
EXTT17=
EXTT18=
EXTT19=
EXTT20=
EXTT21=
EXTT22=
EXTT23=
EXTT24=
PLAYORDER=
